<svg xmlns="http://www.w3.org/2000/svg" xmlns:xlink="http://www.w3.org/1999/xlink" width="17" height="16" viewBox="0 0 17 16"><defs><path id="uivja" d="M980 1554a.541.541 0 0 1-.397-.174l-6.395-6.916-.004-.005c-.777-.862-1.204-2.005-1.204-3.218s.427-2.356 1.204-3.218l.097-.108c.79-.878 1.845-1.361 2.97-1.361 1.126 0 2.18.483 2.97 1.36l.759.843.758-.842c.79-.878 1.845-1.361 2.97-1.361 1.126 0 2.181.483 2.971 1.361l.097.108c.776.862 1.204 2.005 1.204 3.218s-.428 2.356-1.204 3.218a.064.064 0 0 0-.005.005l-6.394 6.916a.541.541 0 0 1-.397.174zm-5.995-7.826l5.995 6.484 5.995-6.484c1.234-1.373 1.233-3.605-.002-4.977l-.097-.108c-.583-.647-1.352-1.003-2.168-1.003-.815 0-1.585.356-2.167 1.003l-1.16 1.288a.54.54 0 0 1-.803 0l-1.16-1.288c-.582-.647-1.351-1.003-2.167-1.003-.815 0-1.585.356-2.167 1.003l-.097.108c-1.235 1.372-1.236 3.604-.002 4.977z"/></defs><g><g transform="translate(-971 -1539)"><use fill="#fff" xlink:href="#uivja"/><use fill="#fff" fill-opacity="0" stroke="#fff" stroke-linecap="round" stroke-linejoin="round" stroke-miterlimit="50" xlink:href="#uivja"/></g></g></svg>